<?xml version="1.0" encoding="UTF-8" standalone="no"?>
<!DOCTYPE svg PUBLIC "-//W3C//DTD SVG 1.1//EN" "http://www.w3.org/Graphics/SVG/1.1/DTD/svg11.dtd">
<svg width="100%" height="100%" viewBox="0 0 10 10" version="1.1" xmlns="http://www.w3.org/2000/svg" xmlns:xlink="http://www.w3.org/1999/xlink" xml:space="preserve" xmlns:serif="http://www.serif.com/" style="fill-rule:evenodd;clip-rule:evenodd;stroke-linejoin:round;stroke-miterlimit:2;">
<circle stroke="#ccc" stroke-width="0.05" cx="1" cy="1" r="0.5" fill="hsl(180,50%,59%)" />
<circle stroke="#ccc" stroke-width="0.05" cx="2" cy="1" r="0.5" fill="hsl(180,50%,48%)" />
<circle stroke="#ccc" stroke-width="0.05" cx="3" cy="1" r="0.5" fill="hsl(180,50%,69%)" />
<circle stroke="#ccc" stroke-width="0.05" cx="4" cy="1" r="0.5" fill="hsl(180,50%,75%)" />
<circle stroke="#ccc" stroke-width="0.05" cx="5" cy="1" r="0.5" fill="hsl(180,50%,60%)" />
<circle stroke="#ccc" stroke-width="0.05" cx="6" cy="1" r="0.5" fill="hsl(180,50%,95%)" />
<circle stroke="#ccc" stroke-width="0.05" cx="7" cy="1" r="0.5" fill="hsl(180,50%,46%)" />
<circle stroke="#ccc" stroke-width="0.05" cx="8" cy="1" r="0.5" fill="hsl(180,50%,46%)" />
<circle stroke="#ccc" stroke-width="0.05" cx="9" cy="1" r="0.5" fill="hsl(180,50%,34%)" />
<circle stroke="#ccc" stroke-width="0.05" cx="1" cy="2" r="0.5" fill="hsl(180,50%,83%)" />
<circle stroke="#ccc" stroke-width="0.05" cx="2" cy="2" r="0.5" fill="hsl(180,50%,30%)" />
<circle stroke="#ccc" stroke-width="0.05" cx="3" cy="2" r="0.5" fill="hsl(180,50%,58%)" />
<circle stroke="#ccc" stroke-width="0.05" cx="4" cy="2" r="0.5" fill="hsl(180,50%,74%)" />
<circle stroke="#ccc" stroke-width="0.05" cx="5" cy="2" r="0.5" fill="hsl(180,50%,27%)" />
<circle stroke="#ccc" stroke-width="0.05" cx="6" cy="2" r="0.5" fill="hsl(180,50%,52%)" />
<circle stroke="#ccc" stroke-width="0.05" cx="7" cy="2" r="0.5" fill="hsl(180,50%,89%)" />
<circle stroke="#ccc" stroke-width="0.05" cx="8" cy="2" r="0.5" fill="hsl(180,50%,51%)" />
<circle stroke="#ccc" stroke-width="0.05" cx="9" cy="2" r="0.5" fill="hsl(180,50%,48%)" />
<circle stroke="#ccc" stroke-width="0.05" cx="1" cy="3" r="0.5" fill="hsl(180,50%,-28%)" />
<circle stroke="#ccc" stroke-width="0.05" cx="2" cy="3" r="0.5" fill="hsl(180,50%,100%)" />
<circle stroke="#ccc" stroke-width="0.05" cx="3" cy="3" r="0.5" fill="hsl(180,50%,-24%)" />
<circle stroke="#ccc" stroke-width="0.05" cx="4" cy="3" r="0.5" fill="hsl(180,50%,-61%)" />
<circle stroke="#ccc" stroke-width="0.05" cx="5" cy="3" r="0.5" fill="hsl(180,50%,-120%)" />
<circle stroke="#ccc" stroke-width="0.05" cx="6" cy="3" r="0.5" fill="hsl(180,50%,-47%)" />
<circle stroke="#ccc" stroke-width="0.05" cx="7" cy="3" r="0.5" fill="hsl(180,50%,60%)" />
<circle stroke="#ccc" stroke-width="0.05" cx="8" cy="3" r="0.5" fill="hsl(180,50%,85%)" />
<circle stroke="#ccc" stroke-width="0.05" cx="9" cy="3" r="0.5" fill="hsl(180,50%,34%)" />
<circle stroke="#ccc" stroke-width="0.05" cx="1" cy="4" r="0.5" fill="hsl(180,50%,46%)" />
<circle stroke="#ccc" stroke-width="0.05" cx="2" cy="4" r="0.5" fill="hsl(180,50%,46%)" />
<circle stroke="#ccc" stroke-width="0.05" cx="3" cy="4" r="0.5" fill="hsl(180,50%,16%)" />
<circle stroke="#ccc" stroke-width="0.05" cx="4" cy="4" r="0.5" fill="hsl(180,50%,-81%)" />
<circle stroke="#ccc" stroke-width="0.05" cx="5" cy="4" r="0.5" fill="hsl(180,50%,-161%)" />
<circle stroke="#ccc" stroke-width="0.05" cx="6" cy="4" r="0.5" fill="hsl(180,50%,-118%)" />
<circle stroke="#ccc" stroke-width="0.05" cx="7" cy="4" r="0.5" fill="hsl(180,50%,-59%)" />
<circle stroke="#ccc" stroke-width="0.05" cx="8" cy="4" r="0.5" fill="hsl(180,50%,93%)" />
<circle stroke="#ccc" stroke-width="0.05" cx="9" cy="4" r="0.5" fill="hsl(180,50%,79%)" />
<circle stroke="#ccc" stroke-width="0.05" cx="1" cy="5" r="0.5" fill="hsl(180,50%,9%)" />
<circle stroke="#ccc" stroke-width="0.05" cx="2" cy="5" r="0.5" fill="hsl(180,50%,85%)" />
<circle stroke="#ccc" stroke-width="0.05" cx="3" cy="5" r="0.5" fill="hsl(180,50%,-51%)" />
<circle stroke="#ccc" stroke-width="0.05" cx="4" cy="5" r="0.5" fill="hsl(180,50%,-156%)" />
<circle stroke="#ccc" stroke-width="0.05" cx="5" cy="5" r="0.5" fill="hsl(180,50%,0%)" />
<circle stroke="#ccc" stroke-width="0.05" cx="6" cy="5" r="0.5" fill="hsl(180,50%,-156%)" />
<circle stroke="#ccc" stroke-width="0.05" cx="7" cy="5" r="0.5" fill="hsl(180,50%,-51%)" />
<circle stroke="#ccc" stroke-width="0.05" cx="8" cy="5" r="0.5" fill="hsl(180,50%,85%)" />
<circle stroke="#ccc" stroke-width="0.05" cx="9" cy="5" r="0.5" fill="hsl(180,50%,9%)" />
<circle stroke="#ccc" stroke-width="0.05" cx="1" cy="6" r="0.5" fill="hsl(180,50%,79%)" />
<circle stroke="#ccc" stroke-width="0.05" cx="2" cy="6" r="0.5" fill="hsl(180,50%,93%)" />
<circle stroke="#ccc" stroke-width="0.05" cx="3" cy="6" r="0.5" fill="hsl(180,50%,-59%)" />
<circle stroke="#ccc" stroke-width="0.05" cx="4" cy="6" r="0.5" fill="hsl(180,50%,-118%)" />
<circle stroke="#ccc" stroke-width="0.05" cx="5" cy="6" r="0.5" fill="hsl(180,50%,-161%)" />
<circle stroke="#ccc" stroke-width="0.05" cx="6" cy="6" r="0.5" fill="hsl(180,50%,-81%)" />
<circle stroke="#ccc" stroke-width="0.05" cx="7" cy="6" r="0.5" fill="hsl(180,50%,16%)" />
<circle stroke="#ccc" stroke-width="0.05" cx="8" cy="6" r="0.5" fill="hsl(180,50%,46%)" />
<circle stroke="#ccc" stroke-width="0.05" cx="9" cy="6" r="0.5" fill="hsl(180,50%,46%)" />
<circle stroke="#ccc" stroke-width="0.05" cx="1" cy="7" r="0.5" fill="hsl(180,50%,34%)" />
<circle stroke="#ccc" stroke-width="0.05" cx="2" cy="7" r="0.5" fill="hsl(180,50%,85%)" />
<circle stroke="#ccc" stroke-width="0.05" cx="3" cy="7" r="0.5" fill="hsl(180,50%,60%)" />
<circle stroke="#ccc" stroke-width="0.05" cx="4" cy="7" r="0.5" fill="hsl(180,50%,-47%)" />
<circle stroke="#ccc" stroke-width="0.05" cx="5" cy="7" r="0.5" fill="hsl(180,50%,-120%)" />
<circle stroke="#ccc" stroke-width="0.05" cx="6" cy="7" r="0.5" fill="hsl(180,50%,-61%)" />
<circle stroke="#ccc" stroke-width="0.05" cx="7" cy="7" r="0.5" fill="hsl(180,50%,-24%)" />
<circle stroke="#ccc" stroke-width="0.05" cx="8" cy="7" r="0.5" fill="hsl(180,50%,100%)" />
<circle stroke="#ccc" stroke-width="0.05" cx="9" cy="7" r="0.5" fill="hsl(180,50%,-28%)" />
<circle stroke="#ccc" stroke-width="0.05" cx="1" cy="8" r="0.5" fill="hsl(180,50%,48%)" />
<circle stroke="#ccc" stroke-width="0.05" cx="2" cy="8" r="0.5" fill="hsl(180,50%,51%)" />
<circle stroke="#ccc" stroke-width="0.05" cx="3" cy="8" r="0.5" fill="hsl(180,50%,89%)" />
<circle stroke="#ccc" stroke-width="0.05" cx="4" cy="8" r="0.5" fill="hsl(180,50%,52%)" />
<circle stroke="#ccc" stroke-width="0.05" cx="5" cy="8" r="0.5" fill="hsl(180,50%,27%)" />
<circle stroke="#ccc" stroke-width="0.05" cx="6" cy="8" r="0.5" fill="hsl(180,50%,74%)" />
<circle stroke="#ccc" stroke-width="0.05" cx="7" cy="8" r="0.5" fill="hsl(180,50%,58%)" />
<circle stroke="#ccc" stroke-width="0.05" cx="8" cy="8" r="0.5" fill="hsl(180,50%,30%)" />
<circle stroke="#ccc" stroke-width="0.05" cx="9" cy="8" r="0.5" fill="hsl(180,50%,83%)" />
<circle stroke="#ccc" stroke-width="0.05" cx="1" cy="9" r="0.5" fill="hsl(180,50%,34%)" />
<circle stroke="#ccc" stroke-width="0.05" cx="2" cy="9" r="0.5" fill="hsl(180,50%,46%)" />
<circle stroke="#ccc" stroke-width="0.05" cx="3" cy="9" r="0.5" fill="hsl(180,50%,46%)" />
<circle stroke="#ccc" stroke-width="0.05" cx="4" cy="9" r="0.5" fill="hsl(180,50%,95%)" />
<circle stroke="#ccc" stroke-width="0.05" cx="5" cy="9" r="0.5" fill="hsl(180,50%,60%)" />
<circle stroke="#ccc" stroke-width="0.05" cx="6" cy="9" r="0.5" fill="hsl(180,50%,75%)" />
<circle stroke="#ccc" stroke-width="0.05" cx="7" cy="9" r="0.5" fill="hsl(180,50%,69%)" />
<circle stroke="#ccc" stroke-width="0.05" cx="8" cy="9" r="0.5" fill="hsl(180,50%,48%)" />
<circle stroke="#ccc" stroke-width="0.05" cx="9" cy="9" r="0.5" fill="hsl(180,50%,59%)" />
</svg>
